<?xml version="1.0" encoding="UTF-8" standalone="no"?>
<!DOCTYPE svg PUBLIC "-//W3C//DTD SVG 1.1//EN"
 "http://www.w3.org/Graphics/SVG/1.1/DTD/svg11.dtd">
<!-- Generated by graphviz version 2.47.0 (20210316.0004)
 -->
<!-- Title: dependencies Pages: 1 -->
<svg width="504pt" height="284pt"
 viewBox="0.00 0.00 504.00 284.00" xmlns="http://www.w3.org/2000/svg" xmlns:xlink="http://www.w3.org/1999/xlink">
<g id="graph0" class="graph" transform="scale(1 1) rotate(0) translate(4 280)">
<title>dependencies</title>
<polygon fill="white" stroke="transparent" points="-4,4 -4,-280 500,-280 500,4 -4,4"/>
<text text-anchor="start" x="227.01" y="-42.4" font-family="Times-12" font-weight="bold" font-size="14.00">Legend</text>
<polygon fill="#ffffb3" stroke="transparent" points="14,-10 14,-30 34,-30 34,-10 14,-10"/>
<text text-anchor="start" x="37.63" y="-15.4" font-family="Times-12" font-size="14.00"> &#160;Declarations</text>
<polygon fill="#8dd3c7" stroke="transparent" points="127,-10 127,-30 147,-30 147,-10 127,-10"/>
<text text-anchor="start" x="150.73" y="-15.4" font-family="Times-12" font-size="14.00"> &#160;Module</text>
<polygon fill="#80b1d3" stroke="transparent" points="213,-10 213,-30 233,-30 233,-10 213,-10"/>
<text text-anchor="start" x="236.78" y="-15.4" font-family="Times-12" font-size="14.00"> &#160;Bootstrap</text>
<polygon fill="#fdb462" stroke="transparent" points="310,-10 310,-30 330,-30 330,-10 310,-10"/>
<text text-anchor="start" x="333.67" y="-15.4" font-family="Times-12" font-size="14.00"> &#160;Providers</text>
<polygon fill="#fb8072" stroke="transparent" points="406,-10 406,-30 426,-30 426,-10 406,-10"/>
<text text-anchor="start" x="429.73" y="-15.4" font-family="Times-12" font-size="14.00"> &#160;Exports</text>
<g id="clust1" class="cluster">
<title>cluster_CoreModule</title>
<polygon fill="none" stroke="black" stroke-dasharray="1,5" points="115,-70 115,-268 381,-268 381,-70 115,-70"/>
</g>
<g id="clust4" class="cluster">
<title>cluster_CoreModule_imports</title>
<polygon fill="none" stroke="black" points="277,-78 277,-130 373,-130 373,-78 277,-78"/>
</g>
<g id="clust5" class="cluster">
<title>cluster_CoreModule_exports</title>
<polygon fill="none" stroke="black" points="173,-208 173,-260 323,-260 323,-208 173,-208"/>
</g>
<g id="clust2" class="cluster">
<title>cluster_CoreModule_declarations</title>
<polygon fill="none" stroke="black" points="123,-78 123,-130 269,-130 269,-78 123,-78"/>
</g>
<!-- SideNavComponent -->
<g id="node1" class="node">
<title>SideNavComponent</title>
<polygon fill="#ffffb3" stroke="black" points="260.54,-122 131.46,-122 131.46,-86 260.54,-86 260.54,-122"/>
<text text-anchor="middle" x="196" y="-99.8" font-family="Times,serif" font-size="14.00">SideNavComponent</text>
</g>
<!-- CoreModule -->
<g id="node2" class="node">
<title>CoreModule</title>
<polygon fill="#8dd3c7" stroke="black" points="291.26,-187 288.26,-191 267.26,-191 264.26,-187 204.74,-187 204.74,-151 291.26,-151 291.26,-187"/>
<text text-anchor="middle" x="248" y="-164.8" font-family="Times,serif" font-size="14.00">CoreModule</text>
</g>
<!-- SideNavComponent&#45;&gt;CoreModule -->
<g id="edge1" class="edge">
<title>SideNavComponent&#45;&gt;CoreModule</title>
<path fill="none" stroke="black" d="M232.69,-122.11C232.69,-122.11 232.69,-140.99 232.69,-140.99"/>
<polygon fill="black" stroke="black" points="229.2,-140.99 232.69,-150.99 236.2,-140.99 229.2,-140.99"/>
</g>
<!-- SideNavComponent  -->
<g id="node4" class="node">
<title>SideNavComponent </title>
<polygon fill="#fb8072" stroke="black" points="314.54,-252 181.46,-252 181.46,-216 314.54,-216 314.54,-252"/>
<text text-anchor="middle" x="248" y="-229.8" font-family="Times,serif" font-size="14.00">SideNavComponent </text>
</g>
<!-- CoreModule&#45;&gt;SideNavComponent  -->
<g id="edge3" class="edge">
<title>CoreModule&#45;&gt;SideNavComponent </title>
<path fill="none" stroke="black" stroke-dasharray="5,2" d="M248,-187.11C248,-187.11 248,-205.99 248,-205.99"/>
<polygon fill="black" stroke="black" points="244.5,-205.99 248,-215.99 251.5,-205.99 244.5,-205.99"/>
</g>
<!-- RouterLink -->
<g id="node3" class="node">
<title>RouterLink</title>
<polygon fill="#8dd3c7" stroke="black" points="365.05,-122 362.05,-126 341.05,-126 338.05,-122 284.95,-122 284.95,-86 365.05,-86 365.05,-122"/>
<text text-anchor="middle" x="325" y="-99.8" font-family="Times,serif" font-size="14.00">RouterLink</text>
</g>
<!-- RouterLink&#45;&gt;CoreModule -->
<g id="edge2" class="edge">
<title>RouterLink&#45;&gt;CoreModule</title>
<path fill="none" stroke="black" d="M284.87,-104C277.85,-104 272.75,-104 272.75,-104 272.75,-104 272.75,-140.89 272.75,-140.89"/>
<polygon fill="black" stroke="black" points="269.25,-140.89 272.75,-150.89 276.25,-140.89 269.25,-140.89"/>
</g>
</g>
</svg>
