<?xml version="1.0" encoding="UTF-8" standalone="no"?>
<!DOCTYPE svg PUBLIC "-//W3C//DTD SVG 1.1//EN"
 "http://www.w3.org/Graphics/SVG/1.1/DTD/svg11.dtd">
<!-- Generated by graphviz version 2.47.0 (20210316.0004)
 -->
<!-- Title: dependencies Pages: 1 -->
<svg width="769pt" height="284pt"
 viewBox="0.00 0.00 769.00 284.00" xmlns="http://www.w3.org/2000/svg" xmlns:xlink="http://www.w3.org/1999/xlink">
<g id="graph0" class="graph" transform="scale(1 1) rotate(0) translate(4 280)">
<title>dependencies</title>
<polygon fill="white" stroke="transparent" points="-4,4 -4,-280 765,-280 765,4 -4,4"/>
<text text-anchor="start" x="359.51" y="-42.4" font-family="Times-12" font-weight="bold" font-size="14.00">Legend</text>
<polygon fill="#ffffb3" stroke="transparent" points="146.5,-10 146.5,-30 166.5,-30 166.5,-10 146.5,-10"/>
<text text-anchor="start" x="170.13" y="-15.4" font-family="Times-12" font-size="14.00"> &#160;Declarations</text>
<polygon fill="#8dd3c7" stroke="transparent" points="259.5,-10 259.5,-30 279.5,-30 279.5,-10 259.5,-10"/>
<text text-anchor="start" x="283.23" y="-15.4" font-family="Times-12" font-size="14.00"> &#160;Module</text>
<polygon fill="#80b1d3" stroke="transparent" points="345.5,-10 345.5,-30 365.5,-30 365.5,-10 345.5,-10"/>
<text text-anchor="start" x="369.28" y="-15.4" font-family="Times-12" font-size="14.00"> &#160;Bootstrap</text>
<polygon fill="#fdb462" stroke="transparent" points="442.5,-10 442.5,-30 462.5,-30 462.5,-10 442.5,-10"/>
<text text-anchor="start" x="466.17" y="-15.4" font-family="Times-12" font-size="14.00"> &#160;Providers</text>
<polygon fill="#fb8072" stroke="transparent" points="538.5,-10 538.5,-30 558.5,-30 558.5,-10 538.5,-10"/>
<text text-anchor="start" x="562.23" y="-15.4" font-family="Times-12" font-size="14.00"> &#160;Exports</text>
<g id="clust1" class="cluster">
<title>cluster_TransactionsModule</title>
<polygon fill="none" stroke="black" stroke-dasharray="1,5" points="8,-70 8,-268 753,-268 753,-70 8,-70"/>
</g>
<g id="clust2" class="cluster">
<title>cluster_TransactionsModule_declarations</title>
<polygon fill="none" stroke="black" points="138,-78 138,-130 745,-130 745,-78 138,-78"/>
</g>
<g id="clust7" class="cluster">
<title>cluster_TransactionsModule_exports</title>
<polygon fill="none" stroke="black" points="72,-208 72,-260 689,-260 689,-208 72,-208"/>
</g>
<g id="clust6" class="cluster">
<title>cluster_TransactionsModule_imports</title>
<polygon fill="none" stroke="black" points="16,-78 16,-130 130,-130 130,-78 16,-78"/>
</g>
<!-- DownloadCsvButtonComponent -->
<g id="node1" class="node">
<title>DownloadCsvButtonComponent</title>
<polygon fill="#ffffb3" stroke="black" points="736.55,-122 537.45,-122 537.45,-86 736.55,-86 736.55,-122"/>
<text text-anchor="middle" x="637" y="-99.8" font-family="Times,serif" font-size="14.00">DownloadCsvButtonComponent</text>
</g>
<!-- TransactionsModule -->
<g id="node4" class="node">
<title>TransactionsModule</title>
<polygon fill="#8dd3c7" stroke="black" points="430.58,-187 427.58,-191 406.58,-191 403.58,-187 299.42,-187 299.42,-151 430.58,-151 430.58,-187"/>
<text text-anchor="middle" x="365" y="-164.8" font-family="Times,serif" font-size="14.00">TransactionsModule</text>
</g>
<!-- DownloadCsvButtonComponent&#45;&gt;TransactionsModule -->
<g id="edge1" class="edge">
<title>DownloadCsvButtonComponent&#45;&gt;TransactionsModule</title>
<path fill="none" stroke="black" d="M608.88,-122.02C608.88,-139.37 608.88,-163 608.88,-163 608.88,-163 440.67,-163 440.67,-163"/>
<polygon fill="black" stroke="black" points="440.67,-159.5 430.67,-163 440.67,-166.5 440.67,-159.5"/>
</g>
<!-- TransactionDialogComponent -->
<g id="node2" class="node">
<title>TransactionDialogComponent</title>
<polygon fill="#ffffb3" stroke="black" points="518.52,-122 333.48,-122 333.48,-86 518.52,-86 518.52,-122"/>
<text text-anchor="middle" x="426" y="-99.8" font-family="Times,serif" font-size="14.00">TransactionDialogComponent</text>
</g>
<!-- TransactionDialogComponent&#45;&gt;TransactionsModule -->
<g id="edge2" class="edge">
<title>TransactionDialogComponent&#45;&gt;TransactionsModule</title>
<path fill="none" stroke="black" d="M381.89,-122.11C381.89,-122.11 381.89,-140.99 381.89,-140.99"/>
<polygon fill="black" stroke="black" points="378.39,-140.99 381.89,-150.99 385.39,-140.99 378.39,-140.99"/>
</g>
<!-- TransactionListComponent -->
<g id="node3" class="node">
<title>TransactionListComponent</title>
<polygon fill="#ffffb3" stroke="black" points="315.69,-122 146.31,-122 146.31,-86 315.69,-86 315.69,-122"/>
<text text-anchor="middle" x="231" y="-99.8" font-family="Times,serif" font-size="14.00">TransactionListComponent</text>
</g>
<!-- TransactionListComponent&#45;&gt;TransactionsModule -->
<g id="edge3" class="edge">
<title>TransactionListComponent&#45;&gt;TransactionsModule</title>
<path fill="none" stroke="black" d="M307.53,-122.11C307.53,-122.11 307.53,-140.99 307.53,-140.99"/>
<polygon fill="black" stroke="black" points="304.03,-140.99 307.53,-150.99 311.03,-140.99 304.03,-140.99"/>
</g>
<!-- DownloadCsvButtonComponent  -->
<g id="node6" class="node">
<title>DownloadCsvButtonComponent </title>
<polygon fill="#fb8072" stroke="black" points="680.55,-252 477.45,-252 477.45,-216 680.55,-216 680.55,-252"/>
<text text-anchor="middle" x="579" y="-229.8" font-family="Times,serif" font-size="14.00">DownloadCsvButtonComponent </text>
</g>
<!-- TransactionsModule&#45;&gt;DownloadCsvButtonComponent  -->
<g id="edge5" class="edge">
<title>TransactionsModule&#45;&gt;DownloadCsvButtonComponent </title>
<path fill="none" stroke="black" stroke-dasharray="5,2" d="M430.78,-175C464.32,-175 498.12,-175 498.12,-175 498.12,-175 498.12,-205.98 498.12,-205.98"/>
<polygon fill="black" stroke="black" points="494.62,-205.98 498.12,-215.98 501.62,-205.98 494.62,-205.98"/>
</g>
<!-- TransactionDialogComponent  -->
<g id="node7" class="node">
<title>TransactionDialogComponent </title>
<polygon fill="#fb8072" stroke="black" points="459.52,-252 270.48,-252 270.48,-216 459.52,-216 459.52,-252"/>
<text text-anchor="middle" x="365" y="-229.8" font-family="Times,serif" font-size="14.00">TransactionDialogComponent </text>
</g>
<!-- TransactionsModule&#45;&gt;TransactionDialogComponent  -->
<g id="edge6" class="edge">
<title>TransactionsModule&#45;&gt;TransactionDialogComponent </title>
<path fill="none" stroke="black" stroke-dasharray="5,2" d="M365,-187.11C365,-187.11 365,-205.99 365,-205.99"/>
<polygon fill="black" stroke="black" points="361.5,-205.99 365,-215.99 368.5,-205.99 361.5,-205.99"/>
</g>
<!-- TransactionListComponent  -->
<g id="node8" class="node">
<title>TransactionListComponent </title>
<polygon fill="#fb8072" stroke="black" points="252.19,-252 79.81,-252 79.81,-216 252.19,-216 252.19,-252"/>
<text text-anchor="middle" x="166" y="-229.8" font-family="Times,serif" font-size="14.00">TransactionListComponent </text>
</g>
<!-- TransactionsModule&#45;&gt;TransactionListComponent  -->
<g id="edge7" class="edge">
<title>TransactionsModule&#45;&gt;TransactionListComponent </title>
<path fill="none" stroke="black" stroke-dasharray="5,2" d="M299.06,-175C252.88,-175 199.38,-175 199.38,-175 199.38,-175 199.38,-205.98 199.38,-205.98"/>
<polygon fill="black" stroke="black" points="195.88,-205.98 199.38,-215.98 202.88,-205.98 195.88,-205.98"/>
</g>
<!-- SharedModule -->
<g id="node5" class="node">
<title>SharedModule</title>
<polygon fill="#8dd3c7" stroke="black" points="122.42,-122 119.42,-126 98.42,-126 95.42,-122 23.58,-122 23.58,-86 122.42,-86 122.42,-122"/>
<text text-anchor="middle" x="73" y="-99.8" font-family="Times,serif" font-size="14.00">SharedModule</text>
</g>
<!-- SharedModule&#45;&gt;TransactionsModule -->
<g id="edge4" class="edge">
<title>SharedModule&#45;&gt;TransactionsModule</title>
<path fill="none" stroke="black" d="M100.93,-122.02C100.93,-139.37 100.93,-163 100.93,-163 100.93,-163 289.39,-163 289.39,-163"/>
<polygon fill="black" stroke="black" points="289.39,-166.5 299.39,-163 289.39,-159.5 289.39,-166.5"/>
</g>
</g>
</svg>
